# xmcd CD database file
#
# Track frame offsets:
#	150
#	8435
#	25695
#	56632
#	73222
#	94747
#	102070
#	122355
#
# Disc length: 1907 seconds
#
# Revision: 0
# Processed by: cddbd v1.5.1PL0 Copyright (c) Steve Scherf et al.
# Submitted via: CDex 1.51
#
DISCID=57077108
DTITLE=Cuby and the Blizzards - Groeten uit Grollo
DYEAR=1967
DGENRE=Blues
TTITLE0=Another Day, Another Road
TTITLE1=The Big Bell
TTITLE2=Somebody Will Know Someday
TTITLE3=So Many Roads
TTITLE4=King Of The World
TTITLE5=Baby, Please Don't Go
TTITLE6=No Shoes
TTITLE7=Another Land
EXTD=YEAR: 1967
EXTT0=
EXTT1=
EXTT2=
EXTT3=
EXTT4=
EXTT5=
EXTT6=
EXTT7=
PLAYORDER=
